<?xml version="1.0" standalone="no"?>
<!DOCTYPE svg PUBLIC "-//W3C//DTD SVG 20010904//EN"
 "http://www.w3.org/TR/2001/REC-SVG-20010904/DTD/svg10.dtd">
<svg version="1.0" xmlns="http://www.w3.org/2000/svg"
 width="140.000000pt" height="140.000000pt" viewBox="0 0 140.000000 140.000000"
 preserveAspectRatio="xMidYMid meet">
<metadata>
Created by potrace 1.14, written by Peter Selinger 2001-2017
</metadata>
<g transform="translate(0.000000,140.000000) scale(0.100000,-0.100000)"
fill="#000000" stroke="none">
<path d="M723 1340 c-28 -11 -30 -20 -4 -13 10 3 31 -3 45 -12 30 -20 46 -13
30 13 -13 20 -40 25 -71 12z"/>
<path d="M577 1302 c-10 -10 -17 -22 -17 -25 0 -13 38 -7 50 8 7 8 20 15 29
15 14 0 14 2 1 10 -23 15 -45 12 -63 -8z"/>
<path d="M845 1279 c-35 -31 -38 -49 -8 -49 8 0 38 14 65 32 41 27 46 33 31
39 -34 14 -52 9 -88 -22z"/>
<path d="M1010 1304 c-21 -6 -50 -80 -61 -161 -15 -97 -8 -811 8 -817 6 -3 18
-29 27 -58 29 -102 84 -158 164 -168 235 -27 314 402 156 845 -37 103 -123
262 -169 312 -39 43 -83 60 -125 47z m81 -104 c10 -6 31 -34 46 -63 22 -43 27
-65 28 -127 0 -95 -28 -192 -72 -246 -18 -23 -33 -46 -33 -53 0 -6 -11 -11
-25 -11 -36 0 -40 27 -40 245 0 156 3 197 17 228 18 39 41 47 79 27z"/>
<path d="M660 1280 c0 -5 5 -10 10 -10 6 0 10 5 10 10 0 6 -4 10 -10 10 -5 0
-10 -4 -10 -10z"/>
<path d="M793 1098 c-56 -61 -22 -178 52 -178 9 0 27 11 40 25 20 20 25 34 25
77 -1 64 -24 98 -67 98 -18 0 -38 -9 -50 -22z m95 -49 c-2 -6 -8 -10 -13 -10
-5 0 -11 4 -13 10 -2 6 4 11 13 11 9 0 15 -5 13 -11z"/>
<path d="M542 1070 c-18 -30 -15 -74 9 -104 32 -41 51 -34 43 17 -4 23 -11 50
-15 59 -6 10 -5 19 1 23 16 10 12 25 -8 25 -9 0 -23 -9 -30 -20z"/>
<path d="M200 770 c-95 -13 -158 -49 -185 -106 -34 -71 -5 -138 79 -182 46
-24 62 -26 156 -27 124 0 183 18 230 71 106 121 -68 273 -280 244z m8 -92 c4
-32 -21 -52 -63 -52 -41 0 -65 19 -65 51 0 58 121 60 128 1z"/>
<path d="M815 334 c-109 -69 -157 -86 -245 -91 -106 -6 -130 -14 -65 -24 107
-15 220 16 329 91 73 49 56 71 -19 24z"/>
<path d="M760 192 c-19 -15 -21 -22 -12 -39 11 -20 86 -63 110 -63 28 0 -1 77
-40 104 -28 20 -31 20 -58 -2z"/>
</g>
</svg>
